<?xml version="1.0" standalone="no"?>
<!DOCTYPE svg PUBLIC "-//W3C//DTD SVG 20010904//EN"
 "http://www.w3.org/TR/2001/REC-SVG-20010904/DTD/svg10.dtd">
<svg version="1.0" xmlns="http://www.w3.org/2000/svg"
 width="625.000000pt" height="625.000000pt" viewBox="0 0 625.000000 625.000000"
 preserveAspectRatio="xMidYMid meet">

<g transform="translate(0.000000,625.000000) scale(0.100000,-0.100000)"
fill="#000000" stroke="none">
<path d="M2931 5459 c-197 -21 -436 -91 -615 -181 -202 -101 -347 -209 -511
-380 -125 -130 -216 -257 -299 -418 -225 -436 -264 -938 -110 -1408 177 -541
615 -979 1157 -1156 308 -101 634 -119 952 -52 630 134 1146 595 1349 1206
155 465 115 973 -110 1410 -92 179 -178 294 -334 450 -156 156 -271 242 -450
334 -319 164 -676 231 -1029 195z m326 -650 c415 -46 793 -329 949 -712 177
-434 89 -918 -228 -1253 -291 -308 -733 -437 -1140 -333 -628 159 -1008 799
-848 1425 50 195 144 362 289 516 255 269 608 399 978 357z"/>
<path d="M1300 1040 l0 -260 1825 0 1825 0 0 260 0 260 -1825 0 -1825 0 0
-260z"/>
</g>
</svg>
